{"asset":{"version":"2.0","generator":"Blockbench 5.0.6 glTF exporter"},"scenes":[{"nodes":[9],"name":"blockbench_export"}],"scene":0,"nodes":[{"translation":[0,-0.4375,0],"name":"Frame"},{"translation":[1.0625,0,0],"name":"Frame"},{"translation":[-1.0625,0,0],"name":"Frame"},{"translation":[0,0.1875,1.625],"name":"Lock-Hinge"},{"translation":[1.0625,0.4375,0.75],"name":"Frame"},{"translation":[-1.0625,0.4375,0.75],"name":"Frame"},{"translation":[0,0.5,-0.75],"name":"Lid","children":[3,4,5]},{"translation":[0,0.5625,0],"name":"Block","children":[0,1,2,6]},{"name":"R-Attachment","children":[7]},{"translation":[-1,0,0],"name":"R-Attachment","mesh":0,"children":[8],"skin":0}],"bufferViews":[{"buffer":0,"byteOffset":0,"byteLength":2304,"target":34962,"byteStride":12},{"buffer":0,"byteOffset":2304,"byteLength":2304,"target":34962,"byteStride":12},{"buffer":0,"byteOffset":4608,"byteLength":1536,"target":34962,"byteStride":8},{"buffer":0,"byteOffset":6144,"byteLength":1536,"target":34962,"byteStride":8},{"buffer":0,"byteOffset":7680,"byteLength":3072,"target":34962,"byteStride":16},{"buffer":0,"byteOffset":10752,"byteLength":576,"target":34963},{"buffer":0,"byteOffset":11328,"byteLength":576}],"buffers":[{"byteLength":11904,"uri":"data:application/octet-stream;base64,"}],"accessors":[{"bufferView":0,"componentType":5126,"count":192,"max":[1.6781294345855713,2.0625,1],"min":[-1.6781294345855713,0,-0.90625],"type":"VEC3"},{"bufferView":1,"componentType":5126,"count":192,"max":[1,1,1],"min":[-1,-1,-1],"type":"VEC3"},{"bufferView":2,"componentType":5126,"count":192,"max":[0.90625,0.71875],"min":[0,0],"type":"VEC2"},{"bufferView":3,"componentType":5123,"count":192,"max":[0,8,0,0],"min":[0,1,0,0],"type":"VEC4"},{"bufferView":4,"componentType":5126,"count":192,"max":[0,1,0,0],"min":[0,1,0,0],"type":"VEC4"},{"bufferView":5,"componentType":5123,"count":288,"max":[191],"min":[0],"type":"SCALAR"},{"bufferView":6,"componentType":5126,"count":9,"max":[1,0,0,0,0,1,0,0,0,0,1,0,1.0625,0,0.75,1],"min":[1,0,0,0,0,1,0,0,0,0,1,0,-1.0625,-1.5,-0.875,1],"type":"MAT4"}],"materials":[{"pbrMetallicRoughness":{"metallicFactor":0,"roughnessFactor":1,"baseColorTexture":{"index":0}},"alphaMode":"MASK","alphaCutoff":0.05,"doubleSided":true}],"textures":[{"sampler":0,"source":0}],"samplers":[{"magFilter":9728,"minFilter":9728,"wrapS":33071,"wrapT":33071}],"images":[{"mimeType":"image/png","uri":"data:image/png;base64,"}],"meshes":[{"primitives":[{"mode":4,"attributes":{"POSITION":0,"NORMAL":1,"TEXCOORD_0":2,"JOINTS_0":3,"WEIGHTS_0":4},"indices":5,"material":0}]}],"skins":[{"inverseBindMatrices":6,"joints":[8,7,0,1,2,6,3,4,5],"skeleton":8}]}