{"asset":{"version":"2.0","generator":"Blockbench 5.0.6 glTF exporter"},"scenes":[{"nodes":[54],"name":"blockbench_export"}],"scene":0,"nodes":[{"rotation":[0.08682399077998726,-0.007595999193365701,0.08682399077998726,0.9924038946146513],"translation":[-0.5,0.53125,1.25],"name":"Jaw"},{"rotation":[-0.12058994384875282,-0.04994997674139814,-0.37940982333240997,0.915975573487065],"translation":[-2.949029909160572e-17,-0.3124999999999991,2.15625],"name":"Forehead"},{"rotation":[-0.506236182853808,-0.047367017109088104,0.0473670171090881,0.8597893105581043],"translation":[0,0.0625,-1.3125],"name":"R-Horn4"},{"rotation":[0.3407188873701093,0.08189997292669901,-0.02980899014617791,0.9361166905521693],"translation":[0,-0.0625,-1.375],"name":"R-Horn3","children":[2]},{"rotation":[-0.1710100540706515,-0.17101005407065145,-0.030154009534216857,0.9698463066499331],"translation":[0.03125,0.09375,-1.3125],"name":"R-Horn2","children":[3]},{"rotation":[0.199566082961434,0.23081309595110125,0.07960403309211989,0.9489793944993571],"translation":[-0.9375,0.1875000000000009,1.75],"name":"R-Horn","children":[4]},{"rotation":[-0.506236182853808,0.047367017109088104,-0.0473670171090881,0.8597893105581043],"translation":[0,0.0625,-1.3125],"name":"L-Horn4"},{"rotation":[0.3407188873701093,-0.08189997292669901,0.02980899014617791,0.9361166905521693],"translation":[0,-0.0625,-1.375],"name":"L-Horn3","children":[6]},{"rotation":[-0.1710100540706515,0.17101005407065145,0.030154009534216857,0.9698463066499331],"translation":[-0.03125,0.09375,-1.3125],"name":"L-Horn2","children":[7]},{"rotation":[0.199566082961434,-0.23081309595110125,-0.07960403309211989,0.9489793944993571],"translation":[0.9664555625,0.18750006250000073,1.75],"name":"L-Horn","children":[8]},{"rotation":[-0.17364796311995495,0,0,0.9848077908426044],"translation":[-0.0144834375,2.16550875,-2.2646450000000002],"name":"Head-Top","children":[1,5,9]},{"rotation":[0.08707296008789751,0.04345298008222309,-0.003801998257257546,0.9952465438034725],"translation":[0.625,0.53125,1.25],"name":"Jaw"},{"translation":[0,1.34375,-0.625],"name":"Chest-Inner"},{"translation":[0,2.21875,-0.625],"name":"Chest-Inner2"},{"rotation":[0,-0.38268289803626016,0,0.9238797538373538],"translation":[-1.75,0.84375,1],"name":"Jaw2-R"},{"rotation":[0.06645197493299075,0.376869857837179,0.16042993948262968,0.9098436567888406],"translation":[1.75,0.84375,1.0625],"name":"Jaw2-L"},{"rotation":[0.7071067811865476,0,0,0.7071067811865475],"translation":[0.12500000000000044,-0.875,-2.220446049250313e-16],"name":"L-Attachment"},{"rotation":[0.7071067811865476,0,0,0.7071067811865475],"name":"L-Spike-Side2"},{"translation":[1.2500000000000004,-0.875,-2.220446049250313e-16],"name":"L-Spike-Side","children":[17]},{"rotation":[0.7071067811865476,0,0,0.7071067811865475],"name":"L-Spike-Front2"},{"rotation":[0,-0.7071067811865475,0,0.7071067811865476],"translation":[0.12500000000000044,-0.875,1.1249999999999998],"name":"L-Spike-Front","children":[19]},{"rotation":[0.7071067811865476,0,0,0.7071067811865475],"name":"L-Spike-Back2"},{"rotation":[0,0.7071067811865475,0,0.7071067811865476],"translation":[0.12500000000000044,-0.875,-1.1250000000000002],"name":"L-Spike-Back","children":[21]},{"rotation":[0.7071067811865476,0,0,0.7071067811865475],"name":"L-Spike-Bot2"},{"rotation":[0.5,-0.4999999999999999,-0.5,0.5000000000000001],"translation":[0.12500000000000044,-2,-2.220446049250313e-16],"name":"L-Spike-Bot","children":[23]},{"translation":[0,-2.25,0.25],"name":"L-Hand","children":[16,18,20,22,24]},{"rotation":[-0.13003000767437134,-0.01137600067141158,-0.08641000509991865,0.9876720582924066],"translation":[0.3125065,-1.4375007499999999,-0.37499693749999996],"name":"L-Forearm","children":[25]},{"rotation":[-0.12940997315144512,0.01703699646535173,0.12940997315144512,0.9829627960657128],"translation":[2.75,2.28125,-0.6875],"name":"L-Arm","children":[26]},{"rotation":[0.7071067811865476,0,0,0.7071067811865475],"translation":[-0.12500000000000044,-0.875,-2.220446049250313e-16],"name":"R-Attachment"},{"rotation":[0.7071067811865476,0,0,0.7071067811865475],"name":"R-Spike-Side2"},{"translation":[-1.2500000000000004,-0.875,-2.220446049250313e-16],"name":"R-Spike-Side","children":[29]},{"rotation":[0.7071067811865476,0,0,0.7071067811865475],"name":"R-Spike-Front2"},{"rotation":[0,0.7071067811865475,0,0.7071067811865476],"translation":[-0.12500000000000044,-0.875,1.1249999999999998],"name":"R-Spike-Front","children":[31]},{"rotation":[0.7071067811865476,0,0,0.7071067811865475],"name":"R-Spike-Back2"},{"rotation":[0,-0.7071067811865475,0,0.7071067811865476],"translation":[-0.12500000000000044,-0.875,-1.1250000000000002],"name":"R-Spike-Back","children":[33]},{"rotation":[0.7071067811865476,0,0,0.7071067811865475],"name":"R-Spike-Bot2"},{"rotation":[0.5,0.4999999999999999,0.5,0.5000000000000001],"translation":[-0.12500000000000044,-2,-2.220446049250313e-16],"name":"R-Spike-Bot","children":[35]},{"translation":[0,-2.25,0.25],"name":"R-Hand","children":[28,30,32,34,36]},{"rotation":[-0.13003000767437134,0.01137600067141158,0.08641000509991865,0.9876720582924066],"translation":[-0.3125065,-1.4375007499999999,-0.37499693750000007],"name":"R-Forearm","children":[37]},{"rotation":[-0.12940997315144512,-0.01703699646535173,-0.12940997315144512,0.9829627960657128],"translation":[-2.75001125,2.2812498750000003,-0.6874999375],"name":"R-Arm","children":[38]},{"translation":[0,1.15625,-0.625],"name":"Head"},{"rotation":[0.13052598533534113,0,0,0.9914448886106773],"translation":[8.462536769428264e-17,1.34375,0.06249999999999989],"name":"Chest","children":[0,10,11,12,13,14,15,27,39,40]},{"rotation":[0.13052598533534113,0,0,0.9914448886106773],"translation":[0.0000065625,-0.3125,-0.13095625],"name":"Belly","children":[41]},{"rotation":[0,0,0.38268289803626016,0.9238797538373538],"translation":[0,-0.125,0],"name":"Pelvis2"},{"rotation":[-0.08699296735524269,-0.005320998003255966,-0.06081597717835274,0.9943366268677933],"translation":[0.0625,-2,-0.3125],"name":"L-Foot"},{"rotation":[-0.08682399077998726,-0.007595999193365701,-0.08682399077998726,0.9924038946146513],"translation":[0,0,0.9375],"name":"L-Knee"},{"rotation":[0.19936793968632288,0,0,0.9799247035488139],"translation":[0.03125,-1.125,0.1875],"name":"L-Calf","children":[44,45]},{"rotation":[-0.10727594260121771,0.09331895006900925,0.07027296239993448,0.9873424717151468],"translation":[1.375,-0.625,0],"name":"L-Thigh","children":[46]},{"rotation":[-0.08699296735524269,0.005320998003255966,0.06081597717835274,0.9943366268677933],"translation":[-0.0625,-2,-0.3125],"name":"R-Foot"},{"rotation":[-0.08682399077998726,0.007595999193365701,0.08682399077998726,0.9924038946146513],"translation":[0,0,0.9375],"name":"R-Knee"},{"rotation":[0.19936793968632288,0,0,0.9799247035488139],"translation":[-0.03125,-1.125,0.1875],"name":"R-Calf","children":[48,49]},{"rotation":[-0.10727594260121771,-0.09331895006900925,-0.07027296239993448,0.9873424717151468],"translation":[-1.375,-0.625,0],"name":"R-Thigh","children":[50]},{"translation":[0,4.3125,0],"name":"Pelvis","children":[42,43,47,51]},{"name":"Origin","children":[52]},{"name":"Origin","mesh":0,"children":[53],"skin":0}],"bufferViews":[{"buffer":0,"byteOffset":0,"byteLength":14112,"target":34962,"byteStride":12},{"buffer":0,"byteOffset":14112,"byteLength":14112,"target":34962,"byteStride":12},{"buffer":0,"byteOffset":28224,"byteLength":9408,"target":34962,"byteStride":8},{"buffer":0,"byteOffset":37632,"byteLength":9408,"target":34962,"byteStride":8},{"buffer":0,"byteOffset":47040,"byteLength":18816,"target":34962,"byteStride":16},{"buffer":0,"byteOffset":65856,"byteLength":2352,"target":34963},{"buffer":0,"byteOffset":68208,"byteLength":3456}],"buffers":[{"byteLength":71664,"uri":"data:application/octet-stream;base64,"}],"accessors":[{"bufferView":0,"componentType":5126,"count":1176,"max":[5.829812526702881,11.318735122680664,3.0830535888671875],"min":[-5.829810619354248,-0.06727725267410278,-2.2270143032073975],"type":"VEC3"},{"bufferView":1,"componentType":5126,"count":1176,"max":[1,0.9999937415122986,1],"min":[-1,-0.9999937415122986,-1],"type":"VEC3"},{"bufferView":2,"componentType":5126,"count":1176,"max":[0.875,0.625],"min":[0,0],"type":"VEC2"},{"bufferView":3,"componentType":5123,"count":1176,"max":[0,53,0,0],"min":[0,2,0,0],"type":"VEC4"},{"bufferView":4,"componentType":5126,"count":1176,"max":[0,1,0,0],"min":[0,1,0,0],"type":"VEC4"},{"bufferView":5,"componentType":5123,"count":1176,"max":[1175],"min":[0],"type":"SCALAR"},{"bufferView":6,"componentType":5126,"count":54,"max":[1,0.9946631789207458,0.9946631789207458,0,0.9969111084938049,1,0.22495178878307343,0,0.9977174401283264,0.9977174401283264,1,0,5.278487682342529,4.041285037994385,8.267602920532227,1],"min":[-0.06698790937662125,-0.9946631789207458,-0.9946631789207458,0,-0.9969111084938049,-0.07807541638612747,-0.9969111084938049,0,-0.9977174401283264,-0.19872058928012848,-0.9977174401283264,0,-5.166285037994385,-10.541666030883789,-4.041285037994385,1],"type":"MAT4"}],"materials":[{"pbrMetallicRoughness":{"metallicFactor":0,"roughnessFactor":1,"baseColorTexture":{"index":0}},"alphaMode":"MASK","alphaCutoff":0.05,"doubleSided":true}],"textures":[{"sampler":0,"source":0}],"samplers":[{"magFilter":9728,"minFilter":9728,"wrapS":33071,"wrapT":33071}],"images":[{"mimeType":"image/png","uri":"data:image/png;base64,"}],"meshes":[{"primitives":[{"mode":4,"attributes":{"POSITION":0,"NORMAL":1,"TEXCOORD_0":2,"JOINTS_0":3,"WEIGHTS_0":4},"indices":5,"material":0}]}],"skins":[{"inverseBindMatrices":6,"joints":[53,52,42,41,0,10,1,5,4,3,2,9,8,7,6,11,12,13,14,15,27,26,25,16,18,17,20,19,22,21,24,23,39,38,37,28,30,29,32,31,34,33,36,35,40,43,47,46,44,45,51,50,48,49],"skeleton":53}]}