{"asset":{"version":"2.0","generator":"Blockbench 5.0.6 glTF exporter"},"scenes":[{"nodes":[10],"name":"blockbench_export"}],"scene":0,"nodes":[{"translation":[-0.6250298125,-1.2500000001747225e-7,0],"name":"Pommel"},{"translation":[0.749969875,-6.250000006424727e-8,0],"name":"Crossguard"},{"translation":[1.6249995000000004,1.2500000001747225e-7,0],"name":"Sword Tip"},{"translation":[1.8125002499999998,1.8749999985967492e-7,0],"name":"Sword Middle","children":[2]},{"translation":[1.0624699375,-1.2500000001747225e-7,0],"name":"Sword Base","children":[3]},{"rotation":[-0.5,-0.4999999999999999,0.5,0.5000000000000001],"translation":[0.00000425,-2,0],"name":"Handle","children":[0,1,4]},{"translation":[0,-0.625,0],"name":"Origin_Item","children":[5]},{"translation":[0,-1.375,0],"name":"Origin_Blade","children":[6]},{"translation":[-0.00000425,4,0],"name":"Origin_Projectile","children":[7]},{"name":"R-Attachment","children":[8]},{"translation":[0,0.8125,0],"name":"R-Attachment","mesh":0,"children":[9],"skin":0}],"bufferViews":[{"buffer":0,"byteOffset":0,"byteLength":1728,"target":34962,"byteStride":12},{"buffer":0,"byteOffset":1728,"byteLength":1728,"target":34962,"byteStride":12},{"buffer":0,"byteOffset":3456,"byteLength":1152,"target":34962,"byteStride":8},{"buffer":0,"byteOffset":4608,"byteLength":1152,"target":34962,"byteStride":8},{"buffer":0,"byteOffset":5760,"byteLength":2304,"target":34962,"byteStride":16},{"buffer":0,"byteOffset":8064,"byteLength":336,"target":34963},{"buffer":0,"byteOffset":8400,"byteLength":640}],"buffers":[{"byteLength":9040,"uri":"data:application/octet-stream;base64,"}],"accessors":[{"bufferView":0,"componentType":5126,"count":144,"max":[0.21875,5.093719482421875,0.8440432548522949],"min":[-0.21875,-0.8125298023223877,-0.8440431356430054],"type":"VEC3"},{"bufferView":1,"componentType":5126,"count":144,"max":[1,1,1],"min":[-1,-1,-1],"type":"VEC3"},{"bufferView":2,"componentType":5126,"count":144,"max":[1,1],"min":[0,0],"type":"VEC2"},{"bufferView":3,"componentType":5123,"count":144,"max":[0,9,0,0],"min":[0,4,0,0],"type":"VEC4"},{"bufferView":4,"componentType":5126,"count":144,"max":[0,1,0,0],"min":[0,1,0,0],"type":"VEC4"},{"bufferView":5,"componentType":5123,"count":168,"max":[139],"min":[4],"type":"SCALAR"},{"bufferView":6,"componentType":5126,"count":10,"max":[1,0,0,0,1,1,2.220446049250313e-16,0,0,0,1,0,0.6250298023223877,1.2499999968440534e-7,7.395570986446986e-32,1],"min":[2.220446049250313e-16,-2.220446049250313e-16,-1,0,0,4.930380657631324e-32,0,0,-4.930380657631324e-32,-1,2.220446049250313e-16,0,-4.499969482421875,-4,0,1],"type":"MAT4"}],"materials":[{"pbrMetallicRoughness":{"metallicFactor":0,"roughnessFactor":1,"baseColorTexture":{"index":0}},"alphaMode":"MASK","alphaCutoff":0.05,"doubleSided":true}],"textures":[{"sampler":0,"source":0}],"samplers":[{"magFilter":9728,"minFilter":9728,"wrapS":33071,"wrapT":33071}],"images":[{"mimeType":"image/png","uri":"data:image/png;base64,"}],"meshes":[{"primitives":[{"mode":4,"attributes":{"POSITION":0,"NORMAL":1,"TEXCOORD_0":2,"JOINTS_0":3,"WEIGHTS_0":4},"indices":5,"material":0}]}],"skins":[{"inverseBindMatrices":6,"joints":[9,8,7,6,5,0,1,4,3,2],"skeleton":9}]}