{"asset":{"version":"2.0","generator":"Blockbench 5.0.6 glTF exporter"},"scenes":[{"nodes":[6,10,14],"name":"blockbench_export"}],"scene":0,"nodes":[{"rotation":[-0.0436190103929938,0,0,0.9990482380407544],"translation":[0.4375,-0.1875,0.84375],"name":"Head-Beard-L"},{"rotation":[-0.13052598533534113,0,0,0.9914448886106773],"translation":[0,0.75,0.84375],"name":"Head-Fur-Front"},{"rotation":[-0.12278803518614437,0.6963641995501536,0.12278803518614438,0.6963641995501537],"translation":[0.9375,0.1875,0.3125],"name":"Head-Fur-L"},{"rotation":[-0.12278803518614437,-0.6963641995501536,-0.12278803518614438,0.6963641995501537],"translation":[-0.9375,0.1875,0.3125],"name":"Head-Fur-R"},{"rotation":[-0.0436190103929938,0,0,0.9990482380407544],"translation":[-0.4375,-0.1875,0.84375],"name":"Head-Beard-R"},{"name":"Head","children":[0,1,2,3,4]},{"translation":[0,1.75,1.4375],"name":"Head","mesh":0,"children":[5],"skin":0},{"rotation":[-0.21263103517704232,0.6743801115674319,0.2705980447669341,0.653281108076875],"translation":[1.1875,0.1875,0],"name":"Chest-Fur-L"},{"rotation":[-0.21263103517704232,-0.6743801115674319,-0.2705980447669341,0.653281108076875],"translation":[-1.1875,0.1875,0],"name":"Chest-Fur-R"},{"name":"Chest","children":[7,8]},{"translation":[0,1.625,0.0625],"name":"Chest","mesh":1,"children":[9],"skin":1},{"rotation":[-0.21263103517704232,0.6743801115674319,0.2705980447669341,0.653281108076875],"translation":[1.09375,0.0625,-0.375],"name":"Pelvis-Fur-L"},{"rotation":[-0.21263103517704232,-0.6743801115674319,-0.2705980447669341,0.653281108076875],"translation":[-1.09375,0.0625,-0.375],"name":"Pelvis-Fur-R"},{"name":"Pelvis","children":[11,12]},{"translation":[0,1.625,-0.6875],"name":"Pelvis","mesh":2,"children":[13],"skin":2}],"bufferViews":[{"buffer":0,"byteOffset":0,"byteLength":1440,"target":34962,"byteStride":12},{"buffer":0,"byteOffset":1440,"byteLength":1440,"target":34962,"byteStride":12},{"buffer":0,"byteOffset":2880,"byteLength":960,"target":34962,"byteStride":8},{"buffer":0,"byteOffset":3840,"byteLength":960,"target":34962,"byteStride":8},{"buffer":0,"byteOffset":4800,"byteLength":1920,"target":34962,"byteStride":16},{"buffer":0,"byteOffset":6720,"byteLength":60,"target":34963},{"buffer":0,"byteOffset":6780,"byteLength":576,"target":34962,"byteStride":12},{"buffer":0,"byteOffset":7356,"byteLength":576,"target":34962,"byteStride":12},{"buffer":0,"byteOffset":7932,"byteLength":384,"target":34962,"byteStride":8},{"buffer":0,"byteOffset":8316,"byteLength":384,"target":34962,"byteStride":8},{"buffer":0,"byteOffset":8700,"byteLength":768,"target":34962,"byteStride":16},{"buffer":0,"byteOffset":9468,"byteLength":24,"target":34963},{"buffer":0,"byteOffset":9492,"byteLength":576,"target":34962,"byteStride":12},{"buffer":0,"byteOffset":10068,"byteLength":576,"target":34962,"byteStride":12},{"buffer":0,"byteOffset":10644,"byteLength":384,"target":34962,"byteStride":8},{"buffer":0,"byteOffset":11028,"byteLength":384,"target":34962,"byteStride":8},{"buffer":0,"byteOffset":11412,"byteLength":768,"target":34962,"byteStride":16},{"buffer":0,"byteOffset":12180,"byteLength":24,"target":34963},{"buffer":0,"byteOffset":12204,"byteLength":384},{"buffer":0,"byteOffset":12588,"byteLength":192},{"buffer":0,"byteOffset":12780,"byteLength":192}],"buffers":[{"byteLength":12972,"uri":"data:application/octet-stream;base64,"}],"accessors":[{"bufferView":0,"componentType":5126,"count":120,"max":[1.194074273109436,0.7500161528587341,1.0702767372131348],"min":[-1.194074273109436,-1.0591703653335571,-0.25],"type":"VEC3"},{"bufferView":1,"componentType":5126,"count":120,"max":[1,0.9961947798728943,1],"min":[-1,-0.9961947798728943,-1],"type":"VEC3"},{"bufferView":2,"componentType":5126,"count":120,"max":[1,1],"min":[0,0],"type":"VEC2"},{"bufferView":3,"componentType":5123,"count":120,"max":[0,5,0,0],"min":[0,1,0,0],"type":"VEC4"},{"bufferView":4,"componentType":5126,"count":120,"max":[0,1,0,0],"min":[0,1,0,0],"type":"VEC4"},{"bufferView":5,"componentType":5123,"count":30,"max":[115],"min":[16],"type":"SCALAR"},{"bufferView":6,"componentType":5126,"count":48,"max":[1.8003689050674438,0.2501322627067566,0.9339324831962585],"min":[-1.8003689050674438,-0.5428304076194763,-1.010194182395935],"type":"VEC3"},{"bufferView":7,"componentType":5126,"count":48,"max":[0.7660444974899292,0.763129472732544,0.9961946606636047],"min":[-0.7660444974899292,-0.763129472732544,-0.9961946606636047],"type":"VEC3"},{"bufferView":8,"componentType":5126,"count":48,"max":[1,1],"min":[0,0],"type":"VEC2"},{"bufferView":9,"componentType":5123,"count":48,"max":[0,2,0,0],"min":[0,1,0,0],"type":"VEC4"},{"bufferView":10,"componentType":5126,"count":48,"max":[0,1,0,0],"min":[0,1,0,0],"type":"VEC4"},{"bufferView":11,"componentType":5123,"count":12,"max":[43],"min":[16],"type":"SCALAR"},{"bufferView":12,"componentType":5126,"count":48,"max":[1.4349775314331055,0.08757700771093369,-0.0014270032988861203],"min":[-1.4349775314331055,-0.34410157799720764,-0.7921510934829712],"type":"VEC3"},{"bufferView":13,"componentType":5126,"count":48,"max":[0.7660444974899292,0.763129472732544,0.9961946606636047],"min":[-0.7660444974899292,-0.763129472732544,-0.9961946606636047],"type":"VEC3"},{"bufferView":14,"componentType":5126,"count":48,"max":[1,1],"min":[0,0],"type":"VEC2"},{"bufferView":15,"componentType":5123,"count":48,"max":[0,2,0,0],"min":[0,1,0,0],"type":"VEC4"},{"bufferView":16,"componentType":5126,"count":48,"max":[0,1,0,0],"min":[0,1,0,0],"type":"VEC4"},{"bufferView":17,"componentType":5123,"count":12,"max":[43],"min":[16],"type":"SCALAR"},{"bufferView":18,"componentType":5126,"count":6,"max":[1,0.34202077984809875,0.9396923780441284,0,2.6081702854233957e-17,1,0.34202077984809875,0,1,2.6081702854233957e-17,1,0,0.4375,0.26032355427742004,0,1],"min":[9.492983617190275e-18,-0.34202077984809875,-0.9396923780441284,0,-2.6081702854233957e-17,0.9396923780441284,0,0,-1,-0.258818656206131,9.492983617190275e-18,0,-0.4375,-0.5060662031173706,-1.0091140270233154,1],"type":"MAT4"},{"bufferView":19,"componentType":5126,"count":3,"max":[1,0.6403414607048035,0.7660444974899292,0,0.06676489859819412,1,0.6427875757217407,0,0.9961946606636047,0.08715620636940002,1,0,0.05400969460606575,0.6173186898231506,0,1],"min":[-0.056023672223091125,-0.6403414607048035,-0.7660444974899292,0,-0.06676489859819412,0.763129472732544,0,0,-0.9961946606636047,0,-9.839963013291708e-7,0,-0.05400969460606575,0,-1.030200481414795,1],"type":"MAT4"},{"bufferView":20,"componentType":5126,"count":3,"max":[1,0.6403414607048035,0.7660444974899292,0,0.06676489859819412,1,0.6427875757217407,0,0.9961946606636047,0.08715620636940002,1,0,0.3164699077606201,0.6853614449501038,0,1],"min":[-0.056023672223091125,-0.6403414607048035,-0.7660444974899292,0,-0.06676489859819412,0.763129472732544,0,0,-0.9961946606636047,0,-9.839963013291708e-7,0,-0.3164699077606201,0,-0.8780357241630554,1],"type":"MAT4"}],"materials":[{"pbrMetallicRoughness":{"metallicFactor":0,"roughnessFactor":1,"baseColorTexture":{"index":0}},"alphaMode":"MASK","alphaCutoff":0.05,"doubleSided":true}],"textures":[{"sampler":0,"source":0}],"samplers":[{"magFilter":9728,"minFilter":9728,"wrapS":33071,"wrapT":33071}],"images":[{"mimeType":"image/png","uri":"data:image/png;base64,"}],"meshes":[{"primitives":[{"mode":4,"attributes":{"POSITION":0,"NORMAL":1,"TEXCOORD_0":2,"JOINTS_0":3,"WEIGHTS_0":4},"indices":5,"material":0}]},{"primitives":[{"mode":4,"attributes":{"POSITION":6,"NORMAL":7,"TEXCOORD_0":8,"JOINTS_0":9,"WEIGHTS_0":10},"indices":11,"material":0}]},{"primitives":[{"mode":4,"attributes":{"POSITION":12,"NORMAL":13,"TEXCOORD_0":14,"JOINTS_0":15,"WEIGHTS_0":16},"indices":17,"material":0}]}],"skins":[{"inverseBindMatrices":18,"joints":[5,0,1,2,3,4],"skeleton":5},{"inverseBindMatrices":19,"joints":[9,7,8],"skeleton":9},{"inverseBindMatrices":20,"joints":[13,11,12],"skeleton":13}]}