{"asset":{"version":"2.0","generator":"Blockbench 5.0.6 glTF exporter"},"scenes":[{"nodes":[33],"name":"blockbench_export"}],"scene":0,"nodes":[{"rotation":[0.5350211900347452,-0.12323304377127586,-0.12944204597665793,0.8257182932877583],"translation":[-0.007862750000000005,0.0026543750000000976,-0.4413016875],"name":"Tail3"},{"rotation":[0.5070311424527012,0.16755504707535102,-0.2978170836730615,0.7912962223182657],"translation":[-0.005277812500000005,-0.002155312500000006,-0.5351501249999999],"name":"Tail2","children":[0]},{"rotation":[0.1499150265790371,0.14991502657903708,-0.1539110272875041,0.9650711711013434],"translation":[0,0.1910391250000001,-0.5795625],"name":"Tail","children":[1]},{"translation":[0,-0.4375,-0.125],"name":"L-Foot"},{"translation":[0,-0.5625,0],"name":"L-Calf","children":[3]},{"translation":[0.6875,-0.40625,0],"name":"L-Thigh","children":[4]},{"translation":[0,-0.4375,-0.125],"name":"R-Foot"},{"translation":[0,-0.5625,0],"name":"R-Calf","children":[6]},{"translation":[-0.6875,-0.40625,0],"name":"R-Thigh","children":[7]},{"rotation":[-0.0436190103929938,0,0,0.9990482380407544],"translation":[0,-0.1875,0.046875],"name":"Jaw"},{"translation":[0,-0.1875,1.09375],"name":"Nose","children":[9]},{"rotation":[0.5000001748438417,0,0,0.8660253028382761],"translation":[0,0.84375,0.03125],"name":"L-Ear2"},{"rotation":[0.08508999065656649,0.01886399792861052,-0.21561597632396562,0.972580893204302],"translation":[0.59375,0.5625,0.40625],"name":"L-Ear","children":[11]},{"rotation":[0.5000001748438417,0,0,0.8660253028382761],"translation":[0,0.84375,0.03125],"name":"R-Ear2"},{"rotation":[0.08508999065656649,-0.01886399792861052,0.21561597632396562,0.972580893204302],"translation":[-0.59375,0.5625,0.40625],"name":"R-Ear","children":[13]},{"translation":[0.5,0.21875,1.1875],"name":"L-Eye"},{"translation":[0.5,0.59375,1.203125],"name":"L-Eyelid"},{"translation":[-0.5,0.21875,1.1875],"name":"R-Eye"},{"translation":[-0.5,0.59375,1.203125],"name":"R-Eyelid"},{"rotation":[0.0436190103929938,0,0,0.9990482380407544],"translation":[0,0.40625,0.40625],"name":"Head","children":[10,12,14,15,16,17,18]},{"rotation":[-0.0436190103929938,0,0,0.9990482380407544],"translation":[0,-0.4375,0.875],"name":"Neck","children":[19]},{"rotation":[0.7071067811865476,0,0,0.7071067811865475],"translation":[0,-0.125,0.0625],"name":"L-Attachment"},{"translation":[0,-0.38775000000000004,-0.03125],"name":"L-Hand","children":[21]},{"translation":[0,-0.5,0],"name":"L-Forearm","children":[22]},{"translation":[0.8125,-0.515625,0.75],"name":"L-Arm","children":[23]},{"rotation":[0.7071067811865476,0,0,0.7071067811865475],"translation":[0,-0.125,0.0625],"name":"R-Attachment"},{"translation":[0,-0.38775000000000004,-0.03125],"name":"R-Hand","children":[25]},{"translation":[0,-0.5,0],"name":"R-Forearm","children":[26]},{"translation":[-0.8125,-0.515625,0.75],"name":"R-Arm","children":[27]},{"translation":[0,0,0.375],"name":"Chest","children":[20,24,28]},{"translation":[0,0,0.25],"name":"Belly","children":[29]},{"translation":[0,1.625,-0.8125],"name":"Pelvis","children":[2,5,8,30]},{"name":"Origin","children":[31]},{"name":"Origin","mesh":0,"children":[32],"skin":0}],"bufferViews":[{"buffer":0,"byteOffset":0,"byteLength":8352,"target":34962,"byteStride":12},{"buffer":0,"byteOffset":8352,"byteLength":8352,"target":34962,"byteStride":12},{"buffer":0,"byteOffset":16704,"byteLength":5568,"target":34962,"byteStride":8},{"buffer":0,"byteOffset":22272,"byteLength":5568,"target":34962,"byteStride":8},{"buffer":0,"byteOffset":27840,"byteLength":11136,"target":34962,"byteStride":16},{"buffer":0,"byteOffset":38976,"byteLength":1644,"target":34963},{"buffer":0,"byteOffset":40620,"byteLength":2112}],"buffers":[{"byteLength":42732,"uri":"data:application/octet-stream;base64,"}],"accessors":[{"bufferView":0,"componentType":5126,"count":696,"max":[1.604642391204834,3.4019625186920166,2.619297504425049],"min":[-1.604642391204834,-0.03125,-2.068889856338501],"type":"VEC3"},{"bufferView":1,"componentType":5126,"count":696,"max":[1,1,1],"min":[-1,-1,-1],"type":"VEC3"},{"bufferView":2,"componentType":5126,"count":696,"max":[1,1],"min":[0,0],"type":"VEC2"},{"bufferView":3,"componentType":5123,"count":696,"max":[0,31,0,0],"min":[0,1,0,0],"type":"VEC4"},{"bufferView":4,"componentType":5126,"count":696,"max":[0,1,0,0],"min":[0,1,0,0],"type":"VEC4"},{"bufferView":5,"componentType":5123,"count":822,"max":[695],"min":[0],"type":"SCALAR"},{"bufferView":6,"componentType":5126,"count":33,"max":[1,0.8584118485450745,0.36599820852279663,0,0.41619768738746643,1,0.08715499192476273,0,0.07338704913854599,1,1,0,0.8125,2.859966993331909,2.294416904449463,1],"min":[0.11348753422498703,-0.42261824011802673,-0.9808925986289978,0,-0.41619768738746643,-0.942080020904541,-1,0,-0.9531857967376709,-0.08715499192476273,-0.06262443214654922,0,-1.1784359216690063,-2.5853374004364014,-2.298232078552246,1],"type":"MAT4"}],"materials":[{"pbrMetallicRoughness":{"metallicFactor":0,"roughnessFactor":1,"baseColorTexture":{"index":0}},"alphaMode":"MASK","alphaCutoff":0.05,"doubleSided":true}],"textures":[{"sampler":0,"source":0}],"samplers":[{"magFilter":9728,"minFilter":9728,"wrapS":33071,"wrapT":33071}],"images":[{"mimeType":"image/png","uri":"data:image/png;base64,"}],"meshes":[{"primitives":[{"mode":4,"attributes":{"POSITION":0,"NORMAL":1,"TEXCOORD_0":2,"JOINTS_0":3,"WEIGHTS_0":4},"indices":5,"material":0}]}],"skins":[{"inverseBindMatrices":6,"joints":[32,31,2,1,0,5,4,3,8,7,6,30,29,20,19,10,9,12,11,14,13,15,16,17,18,24,23,22,21,28,27,26,25],"skeleton":32}]}