{"asset":{"version":"2.0","generator":"Blockbench 5.0.6 glTF exporter"},"scenes":[{"nodes":[32],"name":"blockbench_export"}],"scene":0,"nodes":[{"rotation":[-0.18341896874669433,0,0,0.98303483249776],"translation":[4.6775025466844384e-17,-0.03466506249999979,-0.09976149999999995],"name":"Tail2"},{"rotation":[-0.6256588393026761,0,0,0.7800967996360633],"translation":[-6.25e-8,0.3958917500000001,-0.812500125],"name":"Tail","children":[0]},{"rotation":[0.13052598533534113,0,0,0.9914448886106773],"translation":[0,-0.53125,0],"name":"L-Foot"},{"rotation":[-0.3420198948889229,0,0,0.9396927112094517],"translation":[0,-0.1875,0],"name":"L-Calf","children":[2]},{"rotation":[0.41666404762949494,0.08365500956273017,-0.0023840002725186576,0.9052001034747876],"translation":[0.3849111875,-0.38000706250000005,-0.3751678125],"name":"L-Thigh","children":[3]},{"rotation":[0.13052598533534113,0,0,0.9914448886106773],"translation":[0,-0.53125,0],"name":"R-Foot"},{"rotation":[-0.3420198948889229,0,0,0.9396927112094517],"translation":[0,-0.1875,0],"name":"R-Calf","children":[5]},{"rotation":[0.41666404762949494,-0.08365500956273017,0.0023840002725186576,0.9052001034747876],"translation":[-0.3849111875,-0.38000706250000005,-0.3751678125],"name":"R-Thigh","children":[6]},{"rotation":[0.087155971832894,0,0,0.9961946780493579],"translation":[0,0.012500000000000178,0],"name":"Beak"},{"rotation":[0.0436190103929938,0,0,0.9990482380407544],"translation":[0,-0.078125,0],"name":"Beak2"},{"translation":[0,0.3125,0.43750000000000006],"name":"Mouth","children":[8,9]},{"rotation":[0.5000001748438417,0,0,0.8660253028382761],"translation":[0,0.25,-0.24999999999999994],"name":"Head-Hair"},{"rotation":[0,-0.5000001748438418,0,0.866025302838276],"translation":[1.8749999997943336e-7,0.0000016249999998940723,4.375000000056417e-7],"name":"Head-Hair-Top2"},{"rotation":[0,0.25881895959357537,0,0.9659258492011171],"translation":[0,0.625,0.06250000000000006],"name":"Head-Hair-Top","children":[12]},{"rotation":[0,0.7071067811865475,0,0.7071067811865476],"translation":[0.375,0.3250000000000002,0.15000000000000008],"name":"L-Eye"},{"rotation":[0,-0.7071067811865475,0,0.7071067811865476],"translation":[-0.375,0.3250000000000002,0.15000000000000008],"name":"R-Eye"},{"translation":[0,0.9999988124999999,-0.06249737500000002],"name":"Head","children":[10,11,13,14,15]},{"rotation":[0.087155971832894,0,0,0.9961946780493579],"translation":[0,-0.0625,0.125],"name":"Neck","children":[16]},{"translation":[-0.006249999999999978,-1,0.25],"name":"L-Wing"},{"rotation":[0.7071067811865476,0,0,0.7071067811865475],"translation":[-0.1875,-0.0625,0],"name":"L-Attachment"},{"translation":[0,-0.5,0],"name":"L-Hand","children":[19]},{"translation":[0,-0.5,0],"name":"L-Forearm","children":[20]},{"rotation":[0,0,0.0436190103929938,0.9990482380407544],"translation":[0.8125,0.5,0],"name":"L-Arm","children":[18,21]},{"translation":[0.006249999999999978,-1,0.25],"name":"R-Wing"},{"rotation":[0.7071067811865476,0,0,0.7071067811865475],"translation":[0.1875,-0.0625,0],"name":"R-Attachment"},{"translation":[0,-0.5,0],"name":"R-Hand","children":[24]},{"translation":[0,-0.5,0],"name":"R-Forearm","children":[25]},{"rotation":[0,0,-0.0436190103929938,0.9990482380407544],"translation":[-0.8125,0.5,0],"name":"R-Arm","children":[23,26]},{"translation":[0,0,0.25],"name":"Chest","children":[17,22,27]},{"translation":[0,0,0.25],"name":"Belly","children":[28]},{"rotation":[-0.21643998341896642,0,0,0.9762959252079246],"translation":[0,1.25,-0.125],"name":"Pelvis","children":[1,4,7,29]},{"name":"Origin","children":[30]},{"name":"Origin","mesh":0,"children":[31],"skin":0}],"bufferViews":[{"buffer":0,"byteOffset":0,"byteLength":6624,"target":34962,"byteStride":12},{"buffer":0,"byteOffset":6624,"byteLength":6624,"target":34962,"byteStride":12},{"buffer":0,"byteOffset":13248,"byteLength":4416,"target":34962,"byteStride":8},{"buffer":0,"byteOffset":17664,"byteLength":4416,"target":34962,"byteStride":8},{"buffer":0,"byteOffset":22080,"byteLength":8832,"target":34962,"byteStride":16},{"buffer":0,"byteOffset":30912,"byteLength":972,"target":34963},{"buffer":0,"byteOffset":31884,"byteLength":2048}],"buffers":[{"byteLength":33932,"uri":"data:application/octet-stream;base64,"}],"accessors":[{"bufferView":0,"componentType":5126,"count":552,"max":[0.9805837869644165,3.38802433013916,1.1856751441955566],"min":[-0.980646014213562,-0.20871712267398834,-2.1577107906341553],"type":"VEC3"},{"bufferView":1,"componentType":5126,"count":552,"max":[1,0.999940037727356,0.9961947202682495],"min":[-1,-0.999940037727356,-0.9961947202682495],"type":"VEC3"},{"bufferView":2,"componentType":5126,"count":552,"max":[0.75,0.75],"min":[0,0],"type":"VEC2"},{"bufferView":3,"componentType":5123,"count":552,"max":[0,28,0,0],"min":[0,1,0,0],"type":"VEC4"},{"bufferView":4,"componentType":5126,"count":552,"max":[0,1,0,0],"min":[0,1,0,0],"type":"VEC4"},{"bufferView":5,"componentType":5123,"count":486,"max":[547],"min":[0],"type":"SCALAR"},{"bufferView":6,"componentType":5126,"count":32,"max":[1,0.08715499192476273,1,0,0.2588193416595459,1,0.9764424562454224,0,0.9659257531166077,0.9063074588775635,1,0,0.956326425075531,0,1.938558578491211,1],"min":[2.220446049250313e-16,-0.08715499192476273,-1,0,-0.2588193416595459,-0.5533785223960876,-0.9028587341308594,0,-0.9659257531166077,-0.9764424562454224,-0.5533785223960876,0,-0.956326425075531,-2.9117400646209717,-1.5177106857299805,1],"type":"MAT4"}],"materials":[{"pbrMetallicRoughness":{"metallicFactor":0,"roughnessFactor":1,"baseColorTexture":{"index":0}},"alphaMode":"MASK","alphaCutoff":0.05,"doubleSided":true}],"textures":[{"sampler":0,"source":0}],"samplers":[{"magFilter":9728,"minFilter":9728,"wrapS":33071,"wrapT":33071}],"images":[{"mimeType":"image/png","uri":"data:image/png;base64,"}],"meshes":[{"primitives":[{"mode":4,"attributes":{"POSITION":0,"NORMAL":1,"TEXCOORD_0":2,"JOINTS_0":3,"WEIGHTS_0":4},"indices":5,"material":0}]}],"skins":[{"inverseBindMatrices":6,"joints":[31,30,1,0,4,3,2,7,6,5,29,28,17,16,10,8,9,11,13,12,14,15,22,18,21,20,19,27,23,26,25,24],"skeleton":31}]}