{"asset":{"version":"2.0","generator":"Blockbench 5.0.7 glTF exporter"},"scenes":[{"nodes":[32],"name":"blockbench_export"}],"scene":0,"nodes":[{"rotation":[-0.1834208366485414,0,0,0.9830344839745699],"translation":[0,-0.034664999999999946,-0.09976125000000002],"name":"Tail2"},{"rotation":[-0.6256579836326995,0,0,0.7800974859058736],"translation":[0,0.395891875,-0.8125],"name":"Tail","children":[0]},{"rotation":[0.1305305642522162,0,0,0.9914442857750495],"translation":[0,-0.53125,0],"name":"L-Foot"},{"rotation":[-0.3420208590719716,0,0,0.9396923602752502],"translation":[5.551115123125783e-17,-0.1875,0],"name":"L-Calf","children":[2]},{"rotation":[0.4166605717420287,0.08366011479848826,-0.002380003265842704,0.9052012421179968],"translation":[0.38491125,-0.3800068750000001,-0.3751675],"name":"L-Thigh","children":[3]},{"rotation":[0.1305305642522162,0,0,0.9914442857750495],"translation":[0,-0.53125,0],"name":"R-Foot"},{"rotation":[-0.3420208590719716,0,0,0.9396923602752502],"translation":[-5.551115123125783e-17,-0.1875,0],"name":"R-Calf","children":[5]},{"rotation":[0.4166605717420287,-0.08366011479848826,0.002380003265842704,0.9052012421179968],"translation":[-0.38491125,-0.3800068750000001,-0.3751675],"name":"R-Thigh","children":[6]},{"rotation":[0.08716037558794171,0,0,0.9961942927598857],"translation":[0,0.012500000000000178,0],"name":"Beak"},{"rotation":[0.043619921333723805,0,0,0.9990481982681515],"translation":[0,-0.078125,0],"name":"Beak2"},{"translation":[0,0.3125,0.4375],"name":"Mouth","children":[8,9]},{"rotation":[0.4999980097868828,0,0,0.8660265528314685],"translation":[0,0.25,-0.25],"name":"Head-Hair"},{"rotation":[0,-0.4999980097868828,0,0.8660265528314685],"translation":[0,0.0000018750000001510614,6.249999999763389e-7],"name":"Head-Hair-Top2"},{"rotation":[0,0.25881889260691426,0,0.96592586715013],"translation":[0,0.625,0.0625],"name":"Head-Hair-Top","children":[12]},{"rotation":[0,0.7071067811865475,0,0.7071067811865476],"translation":[0.375,0.3250000000000002,0.15000000000000002],"name":"L-Eye"},{"rotation":[0,-0.7071067811865475,0,0.7071067811865476],"translation":[-0.375,0.3250000000000002,0.15000000000000002],"name":"R-Eye"},{"translation":[0,0.99999875,-0.062497499999999984],"name":"Head","children":[10,11,13,14,15]},{"rotation":[0.08716037558794171,0,0,0.9961942927598857],"translation":[0,-0.0625,0.125],"name":"Neck","children":[16]},{"translation":[-0.006249999999999978,-1,0.25],"name":"L-Wing"},{"rotation":[0.7071067811865476,0,0,0.7071067811865475],"translation":[-0.1875,-0.0625,0],"name":"L-Attachment"},{"translation":[0,-0.5,0],"name":"L-Hand","children":[19]},{"translation":[0,-0.5,0],"name":"L-Forearm","children":[20]},{"rotation":[0,0,0.043619921333723805,0.9990481982681515],"translation":[0.8125,0.5,0],"name":"L-Arm","children":[18,21]},{"translation":[0.006249999999999978,-1,0.25],"name":"R-Wing"},{"rotation":[0.7071067811865476,0,0,0.7071067811865475],"translation":[0.1875,-0.0625,0],"name":"R-Attachment"},{"translation":[0,-0.5,0],"name":"R-Hand","children":[24]},{"translation":[0,-0.5,0],"name":"R-Forearm","children":[25]},{"rotation":[0,0,-0.043619921333723805,0.9990481982681515],"translation":[-0.8125,0.5,0],"name":"R-Arm","children":[23,26]},{"translation":[0,0,0.25],"name":"Chest","children":[17,22,27]},{"translation":[0,0,0.25],"name":"Belly","children":[28]},{"rotation":[-0.2164391381843554,0,0,0.9762961125918783],"translation":[0,1.25,-0.125],"name":"Pelvis","children":[1,4,7,29]},{"name":"Origin","children":[30]},{"name":"Origin","mesh":0,"children":[31],"skin":0}],"bufferViews":[{"buffer":0,"byteOffset":0,"byteLength":6624,"target":34962,"byteStride":12},{"buffer":0,"byteOffset":6624,"byteLength":6624,"target":34962,"byteStride":12},{"buffer":0,"byteOffset":13248,"byteLength":4416,"target":34962,"byteStride":8},{"buffer":0,"byteOffset":17664,"byteLength":4416,"target":34962,"byteStride":8},{"buffer":0,"byteOffset":22080,"byteLength":8832,"target":34962,"byteStride":16},{"buffer":0,"byteOffset":30912,"byteLength":972,"target":34963},{"buffer":0,"byteOffset":31884,"byteLength":2048}],"buffers":[{"byteLength":33932,"uri":"data:application/octet-stream;base64,"}],"accessors":[{"bufferView":0,"componentType":5126,"count":552,"max":[0.9805874228477478,3.3880274295806885,1.1856732368469238],"min":[-0.9806496500968933,-0.20871755480766296,-2.1577117443084717],"type":"VEC3"},{"bufferView":1,"componentType":5126,"count":552,"max":[1,0.9999400973320007,0.9961963891983032],"min":[-1,-0.9999400973320007,-0.9961963891983032],"type":"VEC3"},{"bufferView":2,"componentType":5126,"count":552,"max":[0.75,0.75],"min":[0,0],"type":"VEC2"},{"bufferView":3,"componentType":5123,"count":552,"max":[0,28,0,0],"min":[0,1,0,0],"type":"VEC4"},{"bufferView":4,"componentType":5126,"count":552,"max":[0,1,0,0],"min":[0,1,0,0],"type":"VEC4"},{"bufferView":5,"componentType":5123,"count":486,"max":[547],"min":[0],"type":"SCALAR"},{"bufferView":6,"componentType":5126,"count":32,"max":[1,0.08715680986642838,1,0,0.2588091194629669,1,0.976443350315094,0,0.9659284949302673,0.9063081741333008,1,0,0.9563294053077698,0,1.9385634660720825,1],"min":[2.220446049250313e-16,-0.08715680986642838,-1,0,-0.2588091194629669,-0.5533784031867981,-0.9028593301773071,0,-0.9659284949302673,-0.976443350315094,-0.5533784031867981,0,-0.9563294053077698,-2.911747932434082,-1.5177123546600342,1],"type":"MAT4"}],"materials":[{"pbrMetallicRoughness":{"metallicFactor":0,"roughnessFactor":1,"baseColorTexture":{"index":0}},"alphaMode":"MASK","alphaCutoff":0.05,"doubleSided":true}],"textures":[{"sampler":0,"source":0}],"samplers":[{"magFilter":9728,"minFilter":9728,"wrapS":33071,"wrapT":33071}],"images":[{"mimeType":"image/png","uri":"data:image/png;base64,"}],"meshes":[{"primitives":[{"mode":4,"attributes":{"POSITION":0,"NORMAL":1,"TEXCOORD_0":2,"JOINTS_0":3,"WEIGHTS_0":4},"indices":5,"material":0}]}],"skins":[{"inverseBindMatrices":6,"joints":[31,30,1,0,4,3,2,7,6,5,29,28,17,16,10,8,9,11,13,12,14,15,22,18,21,20,19,27,23,26,25,24],"skeleton":31}]}