{"asset":{"version":"2.0","generator":"Blockbench 5.0.7 glTF exporter"},"scenes":[{"nodes":[12],"name":"blockbench_export"}],"scene":0,"nodes":[{"rotation":[0.7071067811865475,0,0,0.7071067811865476],"translation":[0,-0.1875,0],"name":"L-Attachment"},{"translation":[0,-0.625,0],"name":"L-Hand","children":[0]},{"translation":[0,-0.625,0],"name":"L-Forearm","children":[1]},{"rotation":[0.0026621300810717526,0.06098837652770992,0.04353500507376263,0.9971850552054885],"translation":[0.75,0,0],"name":"L-Arm","children":[2]},{"rotation":[0.7071067811865475,0,0,0.7071067811865476],"translation":[0,-0.1875,0],"name":"R-Attachment"},{"translation":[0,-0.625,0],"name":"R-Hand","children":[4]},{"translation":[0,-0.625,0],"name":"R-Forearm","children":[5]},{"rotation":[0.0026621300810717526,-0.06098837652770992,-0.04353500507376263,0.9971850552054885],"translation":[-0.75,0,0],"name":"R-Arm","children":[6]},{"translation":[0,0.625,0],"name":"Chest","children":[3,7]},{"translation":[0,0.625,0],"name":"Belly","children":[8]},{"translation":[0,0.625,0],"name":"Pelvis","children":[9]},{"name":"Origin","children":[10]},{"name":"Origin","children":[11],"skin":0}],"skins":[{"inverseBindMatrices":0,"joints":[11,10,9,8,3,2,1,0,7,6,5,4],"skeleton":11}],"bufferViews":[{"buffer":0,"byteOffset":0,"byteLength":768}],"buffers":[{"byteLength":768,"uri":"data:application/octet-stream;base64,"}],"accessors":[{"bufferView":0,"componentType":5126,"count":12,"max":[1,0.12186519056558609,0.12186519056558609,0,0.08714962750673294,1,9.858994189926307e-7,0,0.1214016005396843,0.9925466775894165,1,0,0.9049832224845886,0,0.3654909133911133,1],"min":[0.9887702465057373,-0.12186519056558609,-0.12186519056558609,0,-0.08714962750673294,9.858994189926307e-7,-0.9961952567100525,0,-0.1214016005396843,0,-0.010619531385600567,0,-0.9049832224845886,-1.875,-0.09140073508024216,1],"type":"MAT4"}]}