{"asset":{"version":"2.0","generator":"Blockbench 5.0.7 glTF exporter"},"scenes":[{"nodes":[32],"name":"blockbench_export"}],"scene":0,"nodes":[{"rotation":[0.043619387365336,0,0,0.9990482215818578],"translation":[0,-0.2500216875000003,0.71875125],"name":"Jaw"},{"rotation":[-0.02617694830787315,0,0,0.9996573249755573],"translation":[0,-0.1250216875000003,1.06250125],"name":"Jaw-Top"},{"translation":[-0.43749825,0.4374769374999996,1.4368500625],"name":"L-Eye-Attachment"},{"translation":[0.43749825,0.4374769374999996,1.4368500625],"name":"R-Eye-Attachment"},{"translation":[0,0.6249783124999997,0.68750125],"name":"L-Ear-Attachment"},{"translation":[0,0.6249781249999993,0.68750125],"name":"R-Ear-Attachment"},{"translation":[0.5,0.8749785625,1.5000013124999998],"name":"L-Eyebrow-Attachment"},{"translation":[-0.5,0.8749783124999997,1.5000013124999998],"name":"R-Eyebrow-Attachment"},{"translation":[-0.4375,0.7187283124999997,1.48437625],"name":"R-Eyelid"},{"translation":[-0.4375,0.2499783124999997,1.46875125],"name":"R-Eyelid-Bot"},{"translation":[0.4375,0.7187283124999997,1.48437625],"name":"L-Eyelid"},{"translation":[0.4375,0.2499783124999997,1.46875125],"name":"L-Eyelid-Bot"},{"rotation":[-0.3007057995042731,0,0,0.9537169507482269],"translation":[0,0.46874668750000037,-0.03125806250000002],"name":"Head","children":[0,1,2,3,4,5,6,7,8,9,10,11]},{"rotation":[0.3007057995042731,0,0,0.9537169507482269],"translation":[0,1.3125,0],"name":"Neck","children":[12]},{"rotation":[0.7071067811865475,0,0,0.7071067811865476],"translation":[0,-0.3125,0],"name":"L-Attachment"},{"translation":[0,-0.9874999999999998,0.12500000000000003],"name":"L-Hand","children":[14]},{"translation":[0.062499749999999965,-1.1874995000000004,-0.1250001875],"name":"L-Forearm","children":[15]},{"rotation":[0.0026621300810717526,0.06098837652770992,0.04353500507376263,0.9971850552054885],"name":"L-Arm","children":[16]},{"translation":[1,1.125,-0.0625],"name":"L-Shoulder","children":[17]},{"rotation":[0.7071067811865475,0,0,0.7071067811865476],"translation":[0,-0.3125,0],"name":"R-Attachment"},{"translation":[0,-0.9874999999999998,0.12500000000000003],"name":"R-Hand","children":[19]},{"translation":[-0.062499749999999965,-1.1874995000000004,-0.1250001875],"name":"R-Forearm","children":[20]},{"rotation":[0.0026621300810717526,-0.06098837652770992,-0.04353500507376263,0.9971850552054885],"name":"R-Arm","children":[21]},{"translation":[-1,1.125,-0.0625],"name":"R-Shoulder","children":[22]},{"translation":[0,0.625,0.0625],"name":"Chest","children":[13,18,23]},{"translation":[0,0.375,0],"name":"Belly","children":[24]},{"translation":[0.0000011874999999994529,-1.375,-0.375004],"name":"L-Foot"},{"translation":[0,-1.3125,0.125],"name":"L-Calf","children":[26]},{"rotation":[0,0.01919744239968967,0,0.9998157121216442],"translation":[0.46875,-0.0625,0.0625],"name":"L-Thigh","children":[27]},{"rotation":[0,-0.01919744239968967,0,0.9998157121216442],"translation":[-0.46875,-0.0625,0.0625],"name":"R-Thigh"},{"translation":[0,3.1875,0],"name":"Pelvis","children":[25,28,29]},{"name":"Origin","children":[30]},{"name":"Origin","mesh":0,"children":[31],"skin":0}],"bufferViews":[{"buffer":0,"byteOffset":0,"byteLength":5760,"target":34962,"byteStride":12},{"buffer":0,"byteOffset":5760,"byteLength":5760,"target":34962,"byteStride":12},{"buffer":0,"byteOffset":11520,"byteLength":3840,"target":34962,"byteStride":8},{"buffer":0,"byteOffset":15360,"byteLength":3840,"target":34962,"byteStride":8},{"buffer":0,"byteOffset":19200,"byteLength":7680,"target":34962,"byteStride":16},{"buffer":0,"byteOffset":26880,"byteLength":72,"target":34963},{"buffer":0,"byteOffset":26952,"byteLength":72,"target":34963},{"buffer":0,"byteOffset":27024,"byteLength":72,"target":34963},{"buffer":0,"byteOffset":27096,"byteLength":144,"target":34963},{"buffer":0,"byteOffset":27240,"byteLength":72,"target":34963},{"buffer":0,"byteOffset":27312,"byteLength":60,"target":34963},{"buffer":0,"byteOffset":27372,"byteLength":12,"target":34963},{"buffer":0,"byteOffset":27384,"byteLength":12,"target":34963},{"buffer":0,"byteOffset":27396,"byteLength":12,"target":34963},{"buffer":0,"byteOffset":27408,"byteLength":12,"target":34963},{"buffer":0,"byteOffset":27420,"byteLength":72,"target":34963},{"buffer":0,"byteOffset":27492,"byteLength":72,"target":34963},{"buffer":0,"byteOffset":27564,"byteLength":72,"target":34963},{"buffer":0,"byteOffset":27636,"byteLength":72,"target":34963},{"buffer":0,"byteOffset":27708,"byteLength":72,"target":34963},{"buffer":0,"byteOffset":27780,"byteLength":72,"target":34963},{"buffer":0,"byteOffset":27852,"byteLength":72,"target":34963},{"buffer":0,"byteOffset":27924,"byteLength":72,"target":34963},{"buffer":0,"byteOffset":27996,"byteLength":72,"target":34963},{"buffer":0,"byteOffset":28068,"byteLength":2048}],"buffers":[{"byteLength":30116,"uri":"data:application/octet-stream;base64,"}],"accessors":[{"bufferView":0,"componentType":5126,"count":480,"max":[1.6937155723571777,7.245632171630859,1.8133361339569092],"min":[-1.6937155723571777,0.012500002980232239,-0.5625],"type":"VEC3"},{"bufferView":1,"componentType":5126,"count":480,"max":[1,1,1],"min":[-1,-1,-1],"type":"VEC3"},{"bufferView":2,"componentType":5126,"count":480,"max":[2.484375,1.984375],"min":[0,0],"type":"VEC2"},{"bufferView":3,"componentType":5123,"count":480,"max":[0,30,0,0],"min":[0,1,0,0],"type":"VEC4"},{"bufferView":4,"componentType":5126,"count":480,"max":[0,1,0,0],"min":[0,1,0,0],"type":"VEC4"},{"bufferView":5,"componentType":5123,"count":36,"max":[23],"min":[0],"type":"SCALAR"},{"bufferView":6,"componentType":5123,"count":36,"max":[47],"min":[24],"type":"SCALAR"},{"bufferView":7,"componentType":5123,"count":36,"max":[71],"min":[48],"type":"SCALAR"},{"bufferView":8,"componentType":5123,"count":72,"max":[119],"min":[72],"type":"SCALAR"},{"bufferView":9,"componentType":5123,"count":36,"max":[143],"min":[120],"type":"SCALAR"},{"bufferView":10,"componentType":5123,"count":30,"max":[167],"min":[144],"type":"SCALAR"},{"bufferView":11,"componentType":5123,"count":6,"max":[187],"min":[184],"type":"SCALAR"},{"bufferView":12,"componentType":5123,"count":6,"max":[211],"min":[208],"type":"SCALAR"},{"bufferView":13,"componentType":5123,"count":6,"max":[235],"min":[232],"type":"SCALAR"},{"bufferView":14,"componentType":5123,"count":6,"max":[259],"min":[256],"type":"SCALAR"},{"bufferView":15,"componentType":5123,"count":36,"max":[287],"min":[264],"type":"SCALAR"},{"bufferView":16,"componentType":5123,"count":36,"max":[311],"min":[288],"type":"SCALAR"},{"bufferView":17,"componentType":5123,"count":36,"max":[335],"min":[312],"type":"SCALAR"},{"bufferView":18,"componentType":5123,"count":36,"max":[359],"min":[336],"type":"SCALAR"},{"bufferView":19,"componentType":5123,"count":36,"max":[383],"min":[360],"type":"SCALAR"},{"bufferView":20,"componentType":5123,"count":36,"max":[407],"min":[384],"type":"SCALAR"},{"bufferView":21,"componentType":5123,"count":36,"max":[431],"min":[408],"type":"SCALAR"},{"bufferView":22,"componentType":5123,"count":36,"max":[455],"min":[432],"type":"SCALAR"},{"bufferView":23,"componentType":5123,"count":36,"max":[479],"min":[456],"type":"SCALAR"},{"bufferView":24,"componentType":5126,"count":32,"max":[1,0.12186519056558609,0.12186519056558609,0,0.08714962750673294,1,0.0523359552025795,0,0.1214016005396843,0.9925466775894165,1,0,1.5142524242401123,0,3.103473424911499,1],"min":[0.9887702465057373,-0.12186519056558609,-0.12186519056558609,0,-0.08714962750673294,9.858994189926307e-7,-0.9961952567100525,0,-0.1214016005396843,-0.0523359552025795,-0.010619531385600567,0,-1.5142524242401123,-6.776882171630859,-1.8057582378387451,1],"type":"MAT4"}],"materials":[{"pbrMetallicRoughness":{"metallicFactor":0,"roughnessFactor":1},"alphaMode":"MASK","alphaCutoff":0.05,"doubleSided":true},{"pbrMetallicRoughness":{"metallicFactor":0,"roughnessFactor":1},"alphaMode":"MASK","alphaCutoff":0.05,"doubleSided":true},{"pbrMetallicRoughness":{"metallicFactor":0,"roughnessFactor":1},"alphaMode":"MASK","alphaCutoff":0.05,"doubleSided":true},{"pbrMetallicRoughness":{"metallicFactor":0,"roughnessFactor":1},"alphaMode":"MASK","alphaCutoff":0.05,"doubleSided":true},{"pbrMetallicRoughness":{"metallicFactor":0,"roughnessFactor":1},"alphaMode":"MASK","alphaCutoff":0.05,"doubleSided":true},{"pbrMetallicRoughness":{"metallicFactor":0,"roughnessFactor":1},"alphaMode":"MASK","alphaCutoff":0.05,"doubleSided":true},{"pbrMetallicRoughness":{"metallicFactor":0,"roughnessFactor":1},"alphaMode":"MASK","alphaCutoff":0.05,"doubleSided":true},{"pbrMetallicRoughness":{"metallicFactor":0,"roughnessFactor":1},"alphaMode":"MASK","alphaCutoff":0.05,"doubleSided":true},{"pbrMetallicRoughness":{"metallicFactor":0,"roughnessFactor":1},"alphaMode":"MASK","alphaCutoff":0.05,"doubleSided":true}],"meshes":[{"primitives":[{"mode":4,"attributes":{"POSITION":0,"NORMAL":1,"TEXCOORD_0":2,"JOINTS_0":3,"WEIGHTS_0":4},"indices":5,"material":0},{"mode":4,"attributes":{"POSITION":0,"NORMAL":1,"TEXCOORD_0":2,"JOINTS_0":3,"WEIGHTS_0":4},"indices":6,"material":1},{"mode":4,"attributes":{"POSITION":0,"NORMAL":1,"TEXCOORD_0":2,"JOINTS_0":3,"WEIGHTS_0":4},"indices":7,"material":2},{"mode":4,"attributes":{"POSITION":0,"NORMAL":1,"TEXCOORD_0":2,"JOINTS_0":3,"WEIGHTS_0":4},"indices":8,"material":3},{"mode":4,"attributes":{"POSITION":0,"NORMAL":1,"TEXCOORD_0":2,"JOINTS_0":3,"WEIGHTS_0":4},"indices":9,"material":4},{"mode":4,"attributes":{"POSITION":0,"NORMAL":1,"TEXCOORD_0":2,"JOINTS_0":3,"WEIGHTS_0":4},"indices":10,"material":2},{"mode":4,"attributes":{"POSITION":0,"NORMAL":1,"TEXCOORD_0":2,"JOINTS_0":3,"WEIGHTS_0":4},"indices":11,"material":1},{"mode":4,"attributes":{"POSITION":0,"NORMAL":1,"TEXCOORD_0":2,"JOINTS_0":3,"WEIGHTS_0":4},"indices":12,"material":5},{"mode":4,"attributes":{"POSITION":0,"NORMAL":1,"TEXCOORD_0":2,"JOINTS_0":3,"WEIGHTS_0":4},"indices":13,"material":6},{"mode":4,"attributes":{"POSITION":0,"NORMAL":1,"TEXCOORD_0":2,"JOINTS_0":3,"WEIGHTS_0":4},"indices":14,"material":1},{"mode":4,"attributes":{"POSITION":0,"NORMAL":1,"TEXCOORD_0":2,"JOINTS_0":3,"WEIGHTS_0":4},"indices":15,"material":2},{"mode":4,"attributes":{"POSITION":0,"NORMAL":1,"TEXCOORD_0":2,"JOINTS_0":3,"WEIGHTS_0":4},"indices":16,"material":5},{"mode":4,"attributes":{"POSITION":0,"NORMAL":1,"TEXCOORD_0":2,"JOINTS_0":3,"WEIGHTS_0":4},"indices":17,"material":6},{"mode":4,"attributes":{"POSITION":0,"NORMAL":1,"TEXCOORD_0":2,"JOINTS_0":3,"WEIGHTS_0":4},"indices":18,"material":7},{"mode":4,"attributes":{"POSITION":0,"NORMAL":1,"TEXCOORD_0":2,"JOINTS_0":3,"WEIGHTS_0":4},"indices":19,"material":1},{"mode":4,"attributes":{"POSITION":0,"NORMAL":1,"TEXCOORD_0":2,"JOINTS_0":3,"WEIGHTS_0":4},"indices":20,"material":2},{"mode":4,"attributes":{"POSITION":0,"NORMAL":1,"TEXCOORD_0":2,"JOINTS_0":3,"WEIGHTS_0":4},"indices":21,"material":7},{"mode":4,"attributes":{"POSITION":0,"NORMAL":1,"TEXCOORD_0":2,"JOINTS_0":3,"WEIGHTS_0":4},"indices":22,"material":8},{"mode":4,"attributes":{"POSITION":0,"NORMAL":1,"TEXCOORD_0":2,"JOINTS_0":3,"WEIGHTS_0":4},"indices":23,"material":6}]}],"skins":[{"inverseBindMatrices":24,"joints":[31,30,25,24,13,12,0,1,2,3,4,5,6,7,8,9,10,11,18,17,16,15,14,23,22,21,20,19,28,27,26,29],"skeleton":31}]}